<svg xmlns="http://www.w3.org/2000/svg" xmlns:xlink="http://www.w3.org/1999/xlink" width="70" zoomAndPan="magnify" viewBox="0 0 52.5 52.499999" height="70" preserveAspectRatio="xMidYMid meet" version="1.0"><defs><clipPath id="639e52fcfb"><path d="M 0 3 L 34 3 L 34 52.003906 L 0 52.003906 Z M 0 3 " clip-rule="nonzero"/></clipPath><clipPath id="3c92358abb"><path d="M 0 0 L 52.003906 0 L 52.003906 52 L 0 52 Z M 0 0 " clip-rule="nonzero"/></clipPath></defs><path stroke-linecap="butt" transform="matrix(0.742924, 0, 0, 0.742924, 8.316715, 44.97513)" fill="none" stroke-linejoin="miter" d="M -0.000416048 2.998952 L 39.94413 2.998952 " stroke="#f3f1ec" stroke-width="6" stroke-opacity="1" stroke-miterlimit="4"/><g clip-path="url(#639e52fcfb)"><path stroke-linecap="butt" transform="matrix(-0.00032832, 0.742924, -0.742924, -0.00032832, 10.554653, 28.260121)" fill="none" stroke-linejoin="miter" d="M -0.00178067 3.002237 L 28.501499 3.000156 " stroke="#f3f1ec" stroke-width="6" stroke-opacity="1" stroke-miterlimit="4"/></g><g clip-path="url(#3c92358abb)"><path stroke-linecap="butt" transform="matrix(0.56503, -0.482367, 0.482367, 0.56503, 1.291947, 24.198771)" fill="none" stroke-linejoin="miter" d="M -0.00137154 3.000016 L 43.540231 2.998481 " stroke="#f3f1ec" stroke-width="6" stroke-opacity="1" stroke-miterlimit="4"/><path stroke-linecap="butt" transform="matrix(0.56503, 0.482367, -0.482367, 0.56503, 26.108777, 3.200725)" fill="none" stroke-linejoin="miter" d="M -0.0026768 3.000015 L 43.542925 2.998136 " stroke="#f3f1ec" stroke-width="6" stroke-opacity="1" stroke-miterlimit="4"/></g></svg>