<svg xmlns="http://www.w3.org/2000/svg" xmlns:xlink="http://www.w3.org/1999/xlink" width="350" zoomAndPan="magnify" viewBox="0 0 262.5 74.999997" height="100" preserveAspectRatio="xMidYMid meet" version="1.0"><defs><g/><clipPath id="1ccf31aa4c"><path d="M 0 0.765625 L 31 0.765625 L 31 40.050781 L 0 40.050781 Z M 0 0.765625 " clip-rule="nonzero"/></clipPath><clipPath id="95135c75d5"><path d="M 0 0.765625 L 48.386719 0.765625 L 48.386719 40.050781 L 0 40.050781 Z M 0 0.765625 " clip-rule="nonzero"/></clipPath><clipPath id="ba57ae0a1d"><rect x="0" width="49" y="0" height="41"/></clipPath></defs><g transform="matrix(1, 0, 0, 1, 0, 12)"><g clip-path="url(#ba57ae0a1d)"><g clip-path="url(#1ccf31aa4c)"><path stroke-linecap="butt" transform="matrix(-0.000340437, 0.608645, -0.608645, -0.000340437, 8.60813, 21.606413)" fill="none" stroke-linejoin="miter" d="M 0.000408117 3.50215 L 26.018742 3.500433 " stroke="#ffffff" stroke-width="7" stroke-opacity="1" stroke-miterlimit="4"/></g><path stroke-linecap="butt" transform="matrix(0.608645, 0, 0, 0.608645, 6.470856, 33.180834)" fill="none" stroke-linejoin="miter" d="M 0.00295824 3.502311 L 46.160784 3.502311 " stroke="#ffffff" stroke-width="7" stroke-opacity="1" stroke-miterlimit="4"/><g clip-path="url(#95135c75d5)"><path stroke-linecap="butt" transform="matrix(0.50459, -0.34035, 0.34035, 0.50459, -0.000142369, 18.06959)" fill="none" stroke-linejoin="miter" d="M 0.000180033 3.500682 L 46.162018 3.501185 " stroke="#ffffff" stroke-width="7" stroke-opacity="1" stroke-miterlimit="4"/><path stroke-linecap="butt" transform="matrix(0.50459, 0.34035, -0.34035, 0.50459, 23.136883, 2.360302)" fill="none" stroke-linejoin="miter" d="M -0.00172555 3.498456 L 46.160112 3.497952 " stroke="#ffffff" stroke-width="7" stroke-opacity="1" stroke-miterlimit="4"/></g></g></g><g fill="#ffffff" fill-opacity="1"><g transform="translate(44.900774, 47.980034)"><g><path d="M 17.71875 -10.734375 L 22.59375 -10.734375 L 22.59375 -7.75 L 17.71875 -7.75 L 17.71875 0.515625 L 14.25 0.515625 L 14.25 -7.75 L 1.15625 -7.75 L 1.15625 -10.8125 L 14.21875 -27.703125 L 17.71875 -27.703125 Z M 14.484375 -23.875 L 14.40625 -23.875 C 13.800781 -22.757812 13.003906 -21.535156 12.015625 -20.203125 L 5.03125 -10.734375 L 14.328125 -10.734375 L 14.328125 -17.8125 C 14.328125 -18.65625 14.335938 -19.585938 14.359375 -20.609375 C 14.390625 -21.640625 14.429688 -22.726562 14.484375 -23.875 Z M 14.484375 -23.875 "/></g></g></g><g fill="#ffffff" fill-opacity="1"><g transform="translate(70.130392, 47.980034)"><g><path d="M 25.703125 0 L 20.921875 0 L 13.25 -11.09375 L 8.0625 -11.09375 L 8.0625 0 L 4.234375 0 L 4.234375 -27.3125 L 12.6875 -27.3125 C 15.863281 -27.3125 18.320312 -26.664062 20.0625 -25.375 C 21.800781 -24.082031 22.671875 -22.289062 22.671875 -20 C 22.671875 -17.925781 22.160156 -16.226562 21.140625 -14.90625 C 20.117188 -13.59375 18.726562 -12.628906 16.96875 -12.015625 Z M 13.046875 -24.1875 L 8.0625 -24.1875 L 8.0625 -14.09375 L 12.96875 -14.09375 C 14.644531 -14.09375 16.019531 -14.570312 17.09375 -15.53125 C 18.175781 -16.488281 18.71875 -17.78125 18.71875 -19.40625 C 18.71875 -20.84375 18.195312 -22 17.15625 -22.875 C 16.125 -23.75 14.753906 -24.1875 13.046875 -24.1875 Z M 13.046875 -24.1875 "/></g></g></g><g fill="#ffffff" fill-opacity="1"><g transform="translate(98.393931, 47.980034)"><g><path d="M 8.0625 -12.578125 L 8.0625 -3.15625 L 22.234375 -3.15625 L 22.234375 0 L 4.234375 0 L 4.234375 -27.3125 L 21.515625 -27.3125 L 21.515625 -24.15625 L 8.0625 -24.15625 L 8.0625 -15.6875 L 21.640625 -15.6875 L 21.640625 -12.578125 Z M 8.0625 -12.578125 "/></g></g></g><g fill="#ffffff" fill-opacity="1"><g transform="translate(124.900989, 47.980034)"><g><path d="M 25.109375 0 L 21.15625 0 L 17.921875 -8.9375 L 7.859375 -8.9375 L 4.703125 0 L 0.921875 0 L 11.0625 -27.625 L 15.171875 -27.625 Z M 16.84375 -12.015625 L 12.96875 -23.546875 L 8.9375 -12.015625 Z M 16.84375 -12.015625 "/></g></g></g><g fill="#ffffff" fill-opacity="1"><g transform="translate(152.964933, 47.980034)"><g><path d="M 8.0625 -27.3125 L 8.0625 -3.15625 L 21.359375 -3.15625 L 21.359375 0 L 4.234375 0 L 4.234375 -27.3125 Z M 8.0625 -27.3125 "/></g></g></g><g fill="#ffffff" fill-opacity="1"><g transform="translate(174.082705, 47.980034)"><g><path d="M 0.59375 -27.3125 L 24.15625 -27.3125 L 24.15625 -24.234375 L 14.296875 -24.234375 L 14.296875 0 L 10.453125 0 L 10.453125 -24.234375 L 0.59375 -24.234375 Z M 0.59375 -27.3125 "/></g></g></g><g fill="#ffffff" fill-opacity="1"><g transform="translate(200.82929, 47.980034)"><g><path d="M 11.890625 -14.96875 L 19.078125 -27.265625 L 23 -27.265625 L 13.65625 -11.34375 L 13.65625 0 L 9.859375 0 L 9.859375 -11.171875 L 0.484375 -27.3125 L 4.796875 -27.3125 Z M 11.890625 -14.96875 "/></g></g></g><g fill="#ffffff" fill-opacity="1"><g transform="translate(224.501964, 47.980034)"><g><path d="M 25.109375 0 L 21.15625 0 L 17.921875 -8.9375 L 7.859375 -8.9375 L 4.703125 0 L 0.921875 0 L 11.0625 -27.625 L 15.171875 -27.625 Z M 16.84375 -12.015625 L 12.96875 -23.546875 L 8.9375 -12.015625 Z M 16.84375 -12.015625 "/></g></g></g><g fill="#ffffff" fill-opacity="1"><g transform="translate(252.565898, 47.980034)"><g><path d="M 8.296875 0 L 4.46875 0 L 4.46875 -27.3125 L 8.296875 -27.3125 Z M 8.296875 0 "/></g></g></g></svg>